HIERARCHY
ROOT Hips
{
	OFFSET 0.000000 103.266502 0.000000
	CHANNELS 6 Xposition Yposition Zposition Xrotation Yrotation Zrotation 
	JOINT Spine
	{
		OFFSET -0.002400 12.777504 0.315300
		CHANNELS 3 Xrotation Yrotation Zrotation
		JOINT Spine1
		{
			OFFSET -0.002067 5.816869 0.032633
			CHANNELS 3 Xrotation Yrotation Zrotation
			JOINT Spine1_split
			{
				OFFSET -0.002067 5.816869 0.032633
				CHANNELS 3 Xrotation Yrotation Zrotation
				JOINT Spine2
				{
					OFFSET -0.002067 5.816869 0.032633
					CHANNELS 3 Xrotation Yrotation Zrotation
					JOINT Neck
					{
						OFFSET -0.003700 21.199493 -0.826900
						CHANNELS 3 Xrotation Yrotation Zrotation
						JOINT Head
						{
							OFFSET 0.000000 20.442200 4.834800
							CHANNELS 3 Xrotation Yrotation Zrotation
							JOINT HeadTop_End
							{
								OFFSET 0.000000 34.668396 4.968400
								CHANNELS 3 Xrotation Yrotation Zrotation
								End Site
								{
									OFFSET 0.000000 0.000000 0.000000
								}
							}
						}
					}
					JOINT LeftShoulder
					{
						OFFSET 3.288150 8.794197 -1.372250
						CHANNELS 3 Xrotation Yrotation Zrotation
						JOINT LeftShoulder_split
						{
							OFFSET 3.288150 8.794197 -1.372250
							CHANNELS 3 Xrotation Yrotation Zrotation
							JOINT LeftArm
							{
								OFFSET 11.953299 -2.279007 -0.146200
								CHANNELS 3 Xrotation Yrotation Zrotation
								JOINT LeftForeArm
								{
									OFFSET 18.448900 0.000000 0.000000
									CHANNELS 3 Xrotation Yrotation Zrotation
									JOINT LeftHand
									{
										OFFSET 29.527798 0.000000 0.000000
										CHANNELS 3 Xrotation Yrotation Zrotation
										JOINT LeftHandThumb1
										{
											OFFSET 10.739754 -2.369614 9.225399
											CHANNELS 3 Xrotation Yrotation Zrotation
											JOINT LeftHandThumb2
											{
												OFFSET 4.926170 -2.844131 2.844125
												CHANNELS 3 Xrotation Yrotation Zrotation
												JOINT LeftHandThumb3
												{
													OFFSET 4.614891 -2.664413 2.664409
													CHANNELS 3 Xrotation Yrotation Zrotation
													JOINT LeftHandThumb4
													{
														OFFSET 4.432465 -2.559082 2.559083
														CHANNELS 3 Xrotation Yrotation Zrotation
														End Site
														{
															OFFSET 0.000000 0.000000 0.000000
														}
													}
												}
											}
										}
										JOINT LeftHandIndex1
										{
											OFFSET 26.467674 0.187653 6.405298
											CHANNELS 3 Xrotation Yrotation Zrotation
											JOINT LeftHandIndex2
											{
												OFFSET 8.792900 0.000000 0.000000
												CHANNELS 3 Xrotation Yrotation Zrotation
												JOINT LeftHandIndex3
												{
													OFFSET 10.075203 0.000000 0.000000
													CHANNELS 3 Xrotation Yrotation Zrotation
													End Site
													{
														OFFSET 0.000000 0.000000 0.000000
													}
												}
											}
										}
										JOINT LeftHandMiddle1
										{
											OFFSET 25.764404 0.000000 0.000000
											CHANNELS 3 Xrotation Yrotation Zrotation
											JOINT LeftHandMiddle2
											{
												OFFSET 9.393974 0.000000 0.000000
												CHANNELS 3 Xrotation Yrotation Zrotation
												JOINT LeftHandMiddle3
												{
													OFFSET 10.771950 0.000000 0.000000
													CHANNELS 3 Xrotation Yrotation Zrotation
													End Site
													{
														OFFSET 0.000000 0.000000 0.000000
													}
												}
											}
										}
										JOINT LeftHandRing1
										{
											OFFSET 24.660927 0.144547 -6.225808
											CHANNELS 3 Xrotation Yrotation Zrotation
											JOINT LeftHandRing2
											{
												OFFSET 9.393799 0.000000 0.000000
												CHANNELS 3 Xrotation Yrotation Zrotation
												JOINT LeftHandRing3
												{
													OFFSET 9.928497 0.000000 0.000000
													CHANNELS 3 Xrotation Yrotation Zrotation
													End Site
													{
														OFFSET 0.000000 0.000000 0.000000
													}
												}
											}
										}
										JOINT LeftHandPinky1
										{
											OFFSET 23.655350 0.125290 -12.815412
											CHANNELS 3 Xrotation Yrotation Zrotation
											JOINT LeftHandPinky2
											{
												OFFSET 8.425102 0.000000 0.000000
												CHANNELS 3 Xrotation Yrotation Zrotation
												JOINT LeftHandPinky3
												{
													OFFSET 8.147003 0.000000 0.000000
													CHANNELS 3 Xrotation Yrotation Zrotation
													End Site
													{
														OFFSET 0.000000 0.000000 0.000000
													}
												}
											}
										}
									}
								}
							}
						}
					}
					JOINT RightShoulder
					{
						OFFSET -3.249400 8.794197 -1.372250
						CHANNELS 3 Xrotation Yrotation Zrotation
						JOINT RightShoulder_split
						{
							OFFSET -3.249400 8.794197 -1.372250
							CHANNELS 3 Xrotation Yrotation Zrotation
							JOINT RightArm
							{
								OFFSET -11.953299 -2.279007 -0.146200
								CHANNELS 3 Xrotation Yrotation Zrotation
								JOINT RightForeArm
								{
									OFFSET -18.448900 0.000000 0.000000
									CHANNELS 3 Xrotation Yrotation Zrotation
									JOINT RightHand
									{
										OFFSET -29.527802 0.000000 0.000000
										CHANNELS 3 Xrotation Yrotation Zrotation
										JOINT RightHandThumb1
										{
											OFFSET -10.739754 -2.369614 9.225399
											CHANNELS 3 Xrotation Yrotation Zrotation
											JOINT RightHandThumb2
											{
												OFFSET -4.926170 -2.844131 2.844125
												CHANNELS 3 Xrotation Yrotation Zrotation
												JOINT RightHandThumb3
												{
													OFFSET -4.614891 -2.664413 2.664409
													CHANNELS 3 Xrotation Yrotation Zrotation
													JOINT RightHandThumb4
													{
														OFFSET -4.432465 -2.559082 2.559083
														CHANNELS 3 Xrotation Yrotation Zrotation
														End Site
														{
															OFFSET 0.000000 0.000000 0.000000
														}
													}
												}
											}
										}
										JOINT RightHandIndex1
										{
											OFFSET -26.467674 0.187653 6.405298
											CHANNELS 3 Xrotation Yrotation Zrotation
											JOINT RightHandIndex2
											{
												OFFSET -8.792900 0.000000 0.000000
												CHANNELS 3 Xrotation Yrotation Zrotation
												JOINT RightHandIndex3
												{
													OFFSET -10.075203 0.000000 0.000000
													CHANNELS 3 Xrotation Yrotation Zrotation
													End Site
													{
														OFFSET 0.000000 0.000000 0.000000
													}
												}
											}
										}
										JOINT RightHandMiddle1
										{
											OFFSET -25.764404 0.000000 0.000000
											CHANNELS 3 Xrotation Yrotation Zrotation
											JOINT RightHandMiddle2
											{
												OFFSET -9.393974 0.000000 0.000000
												CHANNELS 3 Xrotation Yrotation Zrotation
												JOINT RightHandMiddle3
												{
													OFFSET -10.771950 0.000000 0.000000
													CHANNELS 3 Xrotation Yrotation Zrotation
													End Site
													{
														OFFSET 0.000000 0.000000 0.000000
													}
												}
											}
										}
										JOINT RightHandRing1
										{
											OFFSET -24.660927 0.144547 -6.225808
											CHANNELS 3 Xrotation Yrotation Zrotation
											JOINT RightHandRing2
											{
												OFFSET -9.393799 0.000000 0.000000
												CHANNELS 3 Xrotation Yrotation Zrotation
												JOINT RightHandRing3
												{
													OFFSET -9.928497 0.000000 0.000000
													CHANNELS 3 Xrotation Yrotation Zrotation
													End Site
													{
														OFFSET 0.000000 0.000000 0.000000
													}
												}
											}
										}
										JOINT RightHandPinky1
										{
											OFFSET -23.655350 0.125290 -12.815412
											CHANNELS 3 Xrotation Yrotation Zrotation
											JOINT RightHandPinky2
											{
												OFFSET -8.425102 0.000000 0.000000
												CHANNELS 3 Xrotation Yrotation Zrotation
												JOINT RightHandPinky3
												{
													OFFSET -8.147003 0.000000 0.000000
													CHANNELS 3 Xrotation Yrotation Zrotation
													End Site
													{
														OFFSET 0.000000 0.000000 0.000000
													}
												}
											}
										}
									}
								}
							}
						}
					}
				}
			}
		}
	}
	JOINT LeftUpLeg
	{
		OFFSET 11.394100 -6.187798 -0.413800
		CHANNELS 3 Xrotation Yrotation Zrotation
		JOINT LeftLeg
		{
			OFFSET 0.430247 -32.302673 3.732800
			CHANNELS 3 Xrotation Yrotation Zrotation
			JOINT LeftFoot
			{
				OFFSET -0.430247 -48.264931 -6.423300
				CHANNELS 3 Xrotation Yrotation Zrotation
				JOINT LeftToeBase
				{
					OFFSET 4.230900 -16.068199 23.438400
					CHANNELS 3 Xrotation Yrotation Zrotation
					JOINT LeftToe_End
					{
						OFFSET 4.510700 0.695400 19.974600
						CHANNELS 3 Xrotation Yrotation Zrotation
						End Site
						{
							OFFSET 0.000000 0.000000 0.000000
						}
					}
				}
			}
		}
	}
	JOINT RightUpLeg
	{
		OFFSET -11.333700 -6.187798 -0.413800
		CHANNELS 3 Xrotation Yrotation Zrotation
		JOINT RightLeg
		{
			OFFSET -0.430392 -32.302628 3.733000
			CHANNELS 3 Xrotation Yrotation Zrotation
			JOINT RightFoot
			{
				OFFSET 0.430392 -48.264973 -6.423500
				CHANNELS 3 Xrotation Yrotation Zrotation
				JOINT RightToeBase
				{
					OFFSET -4.230900 -16.068199 23.438400
					CHANNELS 3 Xrotation Yrotation Zrotation
					JOINT RightToe_End
					{
						OFFSET -4.510700 0.695400 19.974600
						CHANNELS 3 Xrotation Yrotation Zrotation
						End Site
						{
							OFFSET 0.000000 0.000000 0.000000
						}
					}
				}
			}
		}
	}
}
MOTION
Frames: 6
Frame Time: 0.016667
0.148601 93.876564 1.216896 22.657722 -0.255223 -7.455512 8.921227 3.267157 0.983350 -0.486219 1.376179 -0.738724 0.000000 0.000000 0.000000 -0.484355 1.393122 -0.752146 -12.183780 0.616442 0.895269 -13.200941 5.313712 -4.930407 -0.000000 -0.000000 0.000000 0.800077 -1.053363 -19.763354 0.000000 0.000000 0.000000 13.552899 -1.213094 -48.473040 0.000006 -65.396848 0.000019 -23.458462 12.668252 -19.629229 74.824012 -40.508076 61.030274 25.114401 4.278459 -82.291827 42.097273 21.884823 -34.007286 -0.000000 -0.000000 0.000001 5.834362 7.878502 -78.812883 5.407303 5.834269 -85.642854 -0.000000 0.000001 0.000000 4.932087 8.202270 -90.163367 4.700891 5.737285 -78.644096 0.000000 -0.000001 0.000000 4.402394 8.246178 -91.663167 5.862433 5.851059 -90.111492 -0.000000 0.000001 0.000000 5.304518 8.410018 -100.449236 2.535399 4.823621 -55.434625 0.000000 0.000000 -0.000001 0.203549 7.873810 19.585052 0.000000 0.000000 0.000000 11.893540 -9.449219 48.231613 0.000005 63.146991 0.000006 -2.319519 -16.349543 7.973134 47.809723 35.835380 -5.333808 34.631320 -33.014501 35.094598 42.386296 -17.521898 37.753628 0.000000 0.000003 -0.000001 5.182526 -7.113270 78.876254 4.422137 -4.651249 87.104057 -0.000001 0.000001 -0.000000 7.506139 -6.722303 94.665063 4.366843 -4.648134 86.421926 -0.000000 -0.000000 -0.000000 5.682791 -6.829430 102.073871 3.638054 -4.544532 77.346251 0.000005 -0.000000 0.000000 5.373757 -6.885356 99.411785 1.706932 -3.605092 50.661320 0.000000 0.000003 -0.000002 -64.491179 0.538528 -2.790192 72.967874 -2.557238 3.360099 9.053820 1.851018 8.112508 -39.503273 -0.509882 0.392278 0.000000 -0.000000 -0.000000 -39.403266 -12.315406 -0.462702 37.401296 -3.733705 2.706904 -19.559884 -1.182903 3.905573 -2.186254 -0.000015 -0.000000 0.000000 -0.000002 0.000000 
-0.450243 93.567284 3.491291 22.964783 -0.272374 -7.256396 8.694851 3.493232 0.622003 -0.496553 1.450543 -0.731988 0.000000 0.000000 0.000000 -0.476998 1.478103 -0.752147 -12.234354 0.523661 0.936672 -13.473430 5.168244 -4.687934 0.000001 -0.000000 0.000001 0.809858 -1.055530 -19.698324 0.000000 0.000000 0.000000 13.400035 -1.470151 -48.429364 0.000036 -65.609281 0.000042 -23.708570 13.002232 -19.426752 74.824012 -40.508076 61.030274 25.166954 4.373165 -82.354391 42.157041 21.874372 -34.059507 -0.000001 -0.000000 -0.000001 5.840194 7.879083 -78.844979 5.407305 5.834269 -85.642868 0.000000 0.000000 0.000000 4.933137 8.202442 -90.173694 4.700465 5.737205 -78.639800 0.000000 0.000001 0.000000 4.398822 8.245263 -91.628449 5.862140 5.851054 -90.108637 -0.000000 -0.000000 0.000001 5.300731 8.409631 -100.413432 2.530726 4.820409 -55.379006 0.000000 0.000000 -0.000000 0.179702 8.056685 19.469466 0.000000 0.000000 0.000000 11.883980 -9.750491 48.141038 -0.000019 64.191463 0.000002 -2.283721 -16.744888 8.133076 47.809719 35.835373 -5.333807 34.631313 -33.014501 35.094595 42.252213 -17.581470 37.606537 0.000002 0.000001 -0.000003 5.188559 -7.114448 78.876520 4.422142 -4.651245 87.104057 -0.000001 0.000000 0.000001 7.510155 -6.722917 94.643192 4.366595 -4.648103 86.418825 -0.000000 -0.000001 0.000001 5.680128 -6.829994 102.040349 3.638050 -4.544539 77.346244 -0.000001 0.000001 -0.000000 5.371709 -6.885652 99.386404 1.706651 -3.604877 50.656962 -0.000001 -0.000001 -0.000002 -67.465412 1.567214 -3.269918 72.257719 -3.658335 3.352065 7.582805 2.530809 8.530351 -34.407522 -0.366277 0.439850 0.000000 -0.000000 -0.000000 -37.941639 -12.410445 -0.085378 37.480137 -3.569687 2.610726 -21.485738 -1.222302 3.801039 -2.186249 -0.000000 0.000001 -0.000000 -0.000000 0.000000 
-1.046257 93.273140 5.757416 23.275087 -0.286901 -7.050548 8.470643 3.715227 0.255320 -0.507242 1.525118 -0.724555 0.000000 0.000000 0.000000 -0.469540 1.563698 -0.748856 -12.284888 0.430356 0.978022 -13.746419 5.022099 -4.445269 0.000001 0.000000 -0.000000 0.829641 -1.055379 -19.576803 0.000000 0.000000 0.000000 13.303902 -1.693182 -48.524341 0.000006 -65.794297 0.000008 -24.000853 13.236744 -19.197112 74.824012 -40.508080 61.030274 25.309109 4.629900 -82.525617 42.319907 21.845236 -34.201776 0.000003 -0.000000 0.000001 5.855885 7.880575 -78.934420 5.407306 5.834267 -85.642868 -0.000000 -0.000001 0.000000 4.936097 8.202937 -90.202668 4.699356 5.736980 -78.628728 0.000000 0.000000 0.000001 4.389609 8.242898 -91.538837 5.861328 5.851053 -90.100707 -0.000000 -0.000000 0.000000 5.290383 8.408573 -100.315521 2.518108 4.811707 -55.228722 -0.000000 0.000000 -0.000001 0.162754 8.201809 19.240260 0.000000 0.000000 0.000000 12.013096 -10.084080 48.107430 -0.000004 65.513248 -0.000001 -2.194441 -17.182512 8.317058 47.809719 35.835380 -5.333809 34.631313 -33.014501 35.094595 41.903344 -17.731362 37.225518 -0.000003 0.000002 -0.000003 5.206645 -7.117982 78.877258 4.422142 -4.651241 87.104057 -0.000005 -0.000000 0.000001 7.521370 -6.724531 94.584548 4.365927 -4.648074 86.410663 -0.000002 0.000001 -0.000001 5.673255 -6.831453 101.953844 3.638488 -4.544627 77.351817 0.000003 -0.000000 -0.000000 5.371528 -6.885576 99.321121 1.705946 -3.604301 50.645771 -0.000000 -0.000000 -0.000001 -70.380387 2.461564 -3.570168 71.186847 -4.841622 3.341148 6.786349 3.390616 7.839978 -29.480879 -0.665624 1.195763 0.000000 0.000000 0.000000 -36.296708 -12.652622 0.353967 37.256254 -3.334695 2.379159 -23.327148 -1.240494 3.679603 -2.186254 -0.000007 0.000003 0.000000 -0.000001 0.000000 
-1.640519 92.951401 8.022633 23.613330 -0.309940 -6.813743 8.241982 3.925607 -0.132245 -0.520797 1.601804 -0.710189 0.000000 0.000000 0.000000 -0.460743 1.655478 -0.739870 -12.336265 0.331891 1.018789 -14.027058 4.875327 -4.190921 0.000001 0.000000 0.000001 0.857951 -1.055084 -19.402793 0.000000 0.000000 0.000000 13.266428 -1.833224 -48.691643 0.000040 -65.913832 0.000045 -24.290238 13.359664 -18.989972 74.824012 -40.508086 61.030274 25.517182 5.007331 -82.781667 42.561084 21.800429 -34.412586 0.000000 0.000001 0.000002 5.878720 7.882563 -79.070901 5.407304 5.834270 -85.642827 0.000000 -0.000001 -0.000000 4.940646 8.203691 -90.247255 4.697843 5.736680 -78.613599 0.000000 -0.000001 0.000000 4.377026 8.239649 -91.416358 5.860110 5.851056 -90.088768 0.000000 0.000001 -0.000002 5.274989 8.406972 -100.169847 2.499672 4.798895 -55.008646 -0.000000 0.000000 -0.000001 0.154743 8.315180 18.934700 0.000000 0.000000 0.000000 12.291669 -10.409286 48.204357 0.000002 66.924461 -0.000003 -2.085124 -17.592959 8.432672 47.809723 35.835380 -5.333806 34.631313 -33.014498 35.094601 41.419343 -17.927541 36.700731 0.000000 0.000001 -0.000001 5.237258 -7.123816 78.883965 4.422149 -4.651249 87.104057 0.000002 -0.000000 0.000001 7.538614 -6.726849 94.499622 4.365036 -4.648023 86.399591 0.000003 0.000000 0.000001 5.663857 -6.833419 101.835593 3.639153 -4.544771 77.360218 0.000003 0.000000 -0.000000 5.371748 -6.885404 99.231850 1.704984 -3.603521 50.630457 -0.000005 0.000002 0.000000 -73.669054 3.046548 -3.572411 70.165099 -6.109666 3.288225 6.497275 4.573839 5.029708 -24.302527 -1.409403 3.443344 -0.000000 -0.000000 -0.000000 -34.591022 -12.990426 0.798408 36.885064 -3.020979 2.055082 -25.118700 -1.246249 3.565446 -2.186249 -0.000002 0.000001 0.000000 -0.000000 -0.000000 
-2.235290 92.514015 10.301479 24.031949 -0.362548 -6.491526 7.995171 4.106234 -0.576313 -0.542845 1.684605 -0.675691 0.000000 0.000000 0.000000 -0.447984 1.765198 -0.714381 -12.390380 0.218422 1.057882 -14.330317 4.724047 -3.900795 -0.000000 -0.000000 -0.000001 0.892452 -1.054611 -19.190875 0.000000 0.000000 0.000000 13.312127 -1.847653 -48.806954 0.000002 -65.962183 0.000006 -24.536285 13.414690 -18.850458 74.824005 -40.508083 61.030274 25.767553 5.464276 -83.098431 42.855783 21.742919 -34.670351 -0.000000 -0.000000 -0.000002 5.905982 7.884654 -79.244196 5.407305 5.834271 -85.642868 -0.000000 0.000001 0.000000 4.946492 8.204661 -90.304479 4.696202 5.736350 -78.597131 0.000000 0.000001 0.000000 4.363321 8.236078 -91.282890 5.858594 5.851059 -90.073885 -0.000000 -0.000001 -0.000000 5.256076 8.404946 -99.990746 2.477525 4.783371 -54.743505 -0.000000 -0.000001 -0.000001 0.153489 8.439837 18.609349 0.000000 0.000000 0.000000 12.697665 -10.683109 48.523071 0.000002 68.139388 -0.000009 -2.018137 -17.890914 8.368091 47.809719 35.835376 -5.333806 34.631316 -33.014501 35.094595 40.883183 -18.129499 36.124133 -0.000002 0.000001 -0.000002 5.280354 -7.131929 78.896335 4.422139 -4.651256 87.104050 -0.000004 -0.000000 0.000002 7.560679 -6.729542 94.398918 4.364053 -4.647939 86.387509 -0.000002 -0.000000 -0.000000 5.653600 -6.835537 101.706735 3.639977 -4.544976 77.370593 0.000001 0.000000 0.000000 5.372859 -6.885081 99.134663 1.703931 -3.602658 50.613758 -0.000002 0.000003 -0.000002 -76.619402 3.653134 -3.768971 68.748743 -7.194953 3.131838 5.135802 5.926074 3.623773 -16.727302 -1.150814 4.789561 -0.000000 0.000000 -0.000000 -33.072408 -13.370401 1.138694 36.684120 -2.601716 1.679716 -26.970230 -1.250796 3.479838 -2.186241 0.000010 -0.000001 0.000000 -0.000001 -0.000000 
-2.839990 92.053337 12.644201 24.506674 -0.442040 -6.107663 7.760014 4.267159 -1.047618 -0.568895 1.769349 -0.638627 0.000000 0.000000 0.000000 -0.435519 1.881721 -0.687170 -12.441149 0.101479 1.098712 -14.623841 4.582463 -3.601104 0.000000 0.000001 -0.000001 0.929817 -1.053953 -18.961353 0.000000 0.000000 0.000000 13.400403 -1.835217 -48.895869 0.000043 -66.003574 0.000025 -24.791281 13.470304 -18.720725 74.824012 -40.508080 61.030274 26.037163 5.959784 -83.450247 43.179264 21.676311 -34.953555 -0.000000 -0.000002 -0.000000 5.934948 7.886459 -79.443938 5.407305 5.834270 -85.642861 0.000000 -0.000001 0.000000 4.953315 8.205778 -90.371278 4.694685 5.736047 -78.581962 -0.000000 -0.000000 0.000000 4.350748 8.232768 -91.160363 5.856885 5.851060 -90.057123 -0.000000 -0.000001 -0.000001 5.235147 8.402640 -99.792513 2.453772 4.766551 -54.458150 -0.000000 -0.000001 -0.000001 0.154264 8.583617 18.261955 0.000000 0.000000 0.000000 13.151224 -10.954127 48.933091 0.000011 69.329227 -0.000020 -1.969875 -18.163483 8.247053 47.809716 35.835380 -5.333806 34.631320 -33.014501 35.094595 40.383282 -18.303768 35.590712 -0.000003 0.000002 -0.000000 5.336101 -7.142305 78.916115 4.422139 -4.651248 87.104050 -0.000002 -0.000001 0.000002 7.586342 -6.732307 94.292858 4.363162 -4.647894 86.376382 0.000003 -0.000000 -0.000000 5.644189 -6.837462 101.588504 3.640918 -4.545172 77.382348 -0.000003 -0.000000 0.000001 5.375328 -6.884577 99.045488 1.702969 -3.601867 50.598424 0.000002 0.000001 -0.000003 -79.041551 4.312653 -4.077359 66.719781 -8.052614 2.948486 3.312907 7.258783 3.147838 -8.107404 -0.293259 4.563362 0.000000 0.000000 -0.000000 -31.451385 -13.745285 1.442657 36.283334 -2.109817 1.303908 -28.740268 -1.255959 3.431073 -2.186246 -0.000005 -0.000000 0.000000 0.000002 0.000000 
